<?xml version="1.0" encoding="UTF-8" standalone="no"?>
<svg
   width="92"
   height="64.099998"
   viewBox="0 0 24.341667 16.959803"
   version="1.1"
   id="svg1396"
   inkscape:version="1.3 (0e150ed6c4, 2023-07-21)"
   sodipodi:docname="logo-boredom-jar.svg"
   xmlns:inkscape="http://www.inkscape.org/namespaces/inkscape"
   xmlns:sodipodi="http://sodipodi.sourceforge.net/DTD/sodipodi-0.dtd"
   xmlns="http://www.w3.org/2000/svg"
   xmlns:svg="http://www.w3.org/2000/svg"
   xmlns:rdf="http://www.w3.org/1999/02/22-rdf-syntax-ns#"
   xmlns:cc="http://creativecommons.org/ns#"
   xmlns:dc="http://purl.org/dc/elements/1.1/">
  <defs
     id="defs1390">
    <rect
       x="57.909534"
       y="-110.85056"
       width="160.44002"
       height="22.792624"
       id="rect2" />
    <rect
       x="-41.5"
       y="-140"
       width="106.85356"
       height="24.253754"
       id="rect1" />
    <rect
       x="-41.5"
       y="-140"
       width="106.85356"
       height="24.253754"
       id="rect1-0" />
  </defs>
  <sodipodi:namedview
     id="base"
     pagecolor="#ffffff"
     bordercolor="#666666"
     borderopacity="1.0"
     inkscape:pageopacity="0.0"
     inkscape:pageshadow="2"
     inkscape:zoom="2.8284271"
     inkscape:cx="39.59798"
     inkscape:cy="12.374369"
     inkscape:document-units="mm"
     inkscape:current-layer="layer1"
     inkscape:document-rotation="0"
     showgrid="false"
     inkscape:pagecheckerboard="true"
     units="px"
     inkscape:window-width="1920"
     inkscape:window-height="1017"
     inkscape:window-x="-8"
     inkscape:window-y="-8"
     inkscape:window-maximized="1"
     showguides="false"
     inkscape:guide-bbox="true"
     inkscape:showpageshadow="2"
     inkscape:deskcolor="#d1d1d1">
    <sodipodi:guide
       position="3.2602661,0.11368889"
       orientation="0,-1"
       id="guide834"
       inkscape:locked="false" />
    <sodipodi:guide
       position="3.0638955,0.75551023"
       orientation="1,0"
       id="guide836"
       inkscape:locked="false" />
    <sodipodi:guide
       position="0.44286711,0.75551023"
       orientation="1,0"
       id="guide838"
       inkscape:locked="false" />
    <sodipodi:guide
       position="4.4860323,12.970797"
       orientation="0,-1"
       id="guide840"
       inkscape:locked="false" />
    <sodipodi:guide
       position="-16.650891,11.780382"
       orientation="0.70710678,-0.70710678"
       id="guide897"
       inkscape:locked="false" />
    <sodipodi:guide
       position="-19.550766,6.8225271"
       orientation="0.70710678,-0.70710678"
       id="guide899"
       inkscape:locked="false" />
    <sodipodi:guide
       position="-20.392665,3.9226494"
       orientation="0.70710678,-0.70710678"
       id="guide901"
       inkscape:locked="false" />
    <sodipodi:guide
       position="-18.194373,4.2500548"
       orientation="0.70710678,-0.70710678"
       id="guide903"
       inkscape:locked="false" />
    <sodipodi:guide
       position="-18.662094,1.8646715"
       orientation="0.70710678,-0.70710678"
       id="guide905"
       inkscape:locked="false" />
    <sodipodi:guide
       position="-18.287917,0.11368909"
       orientation="0.70710678,-0.70710678"
       id="guide907"
       inkscape:locked="false" />
  </sodipodi:namedview>
  <metadata
     id="metadata1393">
    <rdf:RDF>
      <cc:Work
         rdf:about="">
        <dc:format>image/svg+xml</dc:format>
        <dc:type
           rdf:resource="http://purl.org/dc/dcmitype/StillImage" />
      </cc:Work>
    </rdf:RDF>
  </metadata>
  <g
     inkscape:label="Layer 1"
     inkscape:groupmode="layer"
     id="layer1">
    <g
       id="g1039-0-4"
       transform="matrix(0.03340134,0,0,0.03340134,-4.4352893,-5.166707)">
      <g
         aria-label="J  R"
         transform="matrix(8.5043453,0,0,17.410495,4962.1137,-17966.066)"
         id="text877-5-4"
         style="font-size:39.9999px;line-height:1.25;font-family:'Apples Script Demo';-inkscape-font-specification:'Apples Script Demo, Normal';word-spacing:1.09181px;white-space:pre;shape-inside:url(#rect879);fill:#000000" />
      <g
         aria-label="BORED"
         transform="matrix(0,-2.4170163,2.7408733,0,-2833.0241,-4508.7774)"
         id="text883-2-05"
         style="font-size:39.9999px;line-height:1.25;font-family:'Apples Script Demo';-inkscape-font-specification:'Apples Script Demo, Normal';white-space:pre;shape-inside:url(#rect885);fill:#de8787;fill-opacity:1" />
    </g>
    <g
       id="g3"
       transform="translate(9.4543559,27.688894)"
       style="fill:#ffffff">
      <path
         id="rect840"
         style="fill:#ffffff;stroke-width:2.15186;stroke-linecap:round"
         d="m -5.4077058,-27.688894 h 2.51871 v 3.872632 c 0.308957,-0.759088 1.172792,-1.342868 2.25619296,-1.504301 H -2.2730128 c -0.182102,0 -0.328662,-0.105887 -0.328662,-0.237712 v -1.854667 c 0,-0.131825 0.14656,-0.237711 0.328662,-0.237711 h 8.527128 c 0.182099,0 0.328662,0.105886 0.328662,0.237711 v 1.854667 c 0,0.131825 -0.146563,0.237712 -0.328662,0.237712 h -1.617989 c 1.030042,0.153482 1.862523,0.688515 2.207617,1.393196 v -3.761527 h 4.1883738 c 0.776716,0 1.370737,0.136196 1.781287,0.40876 0.41055,0.272565 0.741198,0.779776 0.992704,1.521872 0.251507,0.734477 0.377238,1.631747 0.377238,2.691825 0,0.923766 -0.09654,1.722814 -0.288871,2.396753 -0.192329,0.666322 -0.456657,1.207754 -0.793233,1.62419 -0.214523,0.265005 -0.508037,0.484706 -0.8816,0.658875 0.299591,0.204409 0.517373,0.408473 0.654223,0.612882 0.09247,0.136312 0.226139,0.428148 0.399976,0.874882 0.177532,0.446793 0.29584,0.791204 0.355017,1.033529 l 1.214913,4.827094 h -2.840653 l -1.342554,-5.088577 c -0.170136,-0.658819 -0.321601,-1.086276 -0.454753,-1.283126 -0.181233,-0.257445 -0.3866668,-0.386539 -0.6159828,-0.386539 h -0.222209 v 6.758242 h -2.351794 -0.172082 l -9.856763,0.01395 v -4.31498 c -0.03514,0.383975 -0.07514,0.740729 -0.125574,1.04128 -0.162738,0.991924 -0.493386,1.832235 -0.992704,2.521294 -0.495619,0.68906 -1.138306,0.963121 -1.908927,1.033529 -0.766094,0.06999 -1.65292,-0.187653 -2.143301,-0.622373 -0.479147,-0.424814 -0.898577,-1.175925 -1.146386,-2.046714 -0.156593,-0.685096 -0.120958,-1.419552 -0.120958,-1.419552 h 2.621029 c 0.09616,0.143873 0,0.825013 0.521039,0.825013 1.047421,0 0.899111,-2.627834 0.901096,-3.414518 z m 14.775325,3.361552 v 3.384806 h 1.0593668 c 0.513563,-0.08642 0.899064,-0.296874 1.070736,-0.749308 0.107263,-0.280183 0.16123,-0.602374 0.16123,-0.965833 0,-0.537628 -0.08316,-0.949907 -0.249597,-1.23765 -0.166437,-0.287743 -0.479295,-0.432015 -0.937927,-0.432015 z m -7.39128,0.971 c -1.40985304,0 -2.54403004,0.598782 -2.54403004,1.342554 v 1.368909 5.930904 1.342554 h 2.54403004 0.05013 2.545064 v -1.342554 -5.930904 -1.368909 c 0,-0.743772 -1.13521,-1.342554 -2.545064,-1.342554 z"
         sodipodi:nodetypes="ccccsssssssscccsscsccccccccccsccccccccsccccsccscssscssccccccccssscc" />
      <text
         xml:space="preserve"
         transform="matrix(0,-0.12924008,0.1975039,0,17.711605,-20.668252)"
         id="text1"
         style="font-size:17.0079px;line-height:1.25;font-family:Calibri;-inkscape-font-specification:Calibri;letter-spacing:0px;word-spacing:0px;white-space:pre;shape-inside:url(#rect1);fill:#ffffff;stroke:#ffffff"><tspan
           x="-41.5"
           y="-124.75107"
           id="tspan4"><tspan
             style="font-weight:900;font-family:Arial;-inkscape-font-specification:'Arial Heavy'"
             id="tspan3">BOREDOM</tspan></tspan></text>
    </g>
    <text
       xml:space="preserve"
       transform="scale(0.26458333)"
       id="text2"
       style="font-size:17.0079px;line-height:1.25;font-family:Calibri;-inkscape-font-specification:Calibri;letter-spacing:0px;word-spacing:0px;white-space:pre;shape-inside:url(#rect2)" />
  </g>
</svg>
